<?xml version="1.0" encoding="utf-8"?>
<!-- Generator: Adobe Illustrator 25.2.3, SVG Export Plug-In . SVG Version: 6.00 Build 0)  -->
<svg version="1.1" id="Capa_1" xmlns="http://www.w3.org/2000/svg" xmlns:xlink="http://www.w3.org/1999/xlink" x="0px" y="0px"
	 viewBox="0 0 100 25" style="enable-background:new 0 0 100 25;" xml:space="preserve">
<style type="text/css">
	.st0{fill:#FFFFFF;}
</style>
<g>
	<path class="st0" d="M11.3,15.8C10,14.1,8,13,6.2,12.4C6.3,5.5,12.9,0,12.9,0s6.7,5.6,6.7,12.5S12.9,25,12.9,25
		S14.2,19.6,11.3,15.8 M4.8,16.4c0,0-0.6-4.8,1.4-4v0.1c0,6.9,6.7,12.5,6.7,12.5S7,24.4,4.1,20.7S4.8,16.4,4.8,16.4 M0.8,8.5
		c1.4,1.9,4.3,2.2,4.3,2.2S5.8,8,4.4,6.2S0.2,4,0.2,4S-0.5,6.6,0.8,8.5 M5.2,4.5C5.2,4.5,5.2,4.6,5.2,4.5c0.2,1.3,2.1,1.1,2.1-0.1
		c0,0,0-0.1,0-0.1s0-0.1,0-0.1C7.1,3,5.1,3.2,5.2,4.5L5.2,4.5 M18.6,20.7l-0.1,0.1c-2.1,1.7,0.6,4.7,2.8,3.1l0.1-0.1l0.1-0.1
		c2.1-1.7-0.6-4.7-2.8-3.1L18.6,20.7"/>
	<g>
		<g>
			<path class="st0" d="M32,24.8V12.4h1.9l4.2,6.3c0.9,1.3,1.7,2.6,2.4,4l0,0c-0.2-1.7-0.2-3.2-0.2-5.1v-5.2h1.6v12.4h-1.7L36,18.5
				c-0.9-1.3-1.7-2.7-2.5-4.1l-0.1,0c0.1,1.6,0.1,3,0.1,5.1v5.3L32,24.8z"/>
			<path class="st0" d="M47,20.9l-1.4,3.9h-1.8l4.5-12.4h2.1L55,24.8h-1.8l-1.4-3.9H47z M51.4,19.7l-1.3-3.6
				c-0.3-0.8-0.5-1.5-0.7-2.3h0c-0.2,0.7-0.4,1.5-0.7,2.2l-1.3,3.6H51.4z"/>
			<path class="st0" d="M59.4,13.8h-4v-1.4h9.8v1.4h-4v11h-1.7V13.8z"/>
			<path class="st0" d="M68.4,12.4v7.3c0,2.8,1.3,3.9,3.1,3.9c2,0,3.2-1.2,3.2-3.9v-7.3h1.7v7.2c0,3.8-2.1,5.4-5,5.4
				c-2.7,0-4.8-1.5-4.8-5.3v-7.3H68.4z"/>
			<path class="st0" d="M79.4,12.6c1.1-0.2,2.2-0.3,3.3-0.3c1.8,0,3,0.3,3.8,1c0.7,0.6,1.1,1.5,1,2.4c0,1.6-1.1,2.7-2.5,3.2v0.1
				c1,0.3,1.6,1.2,1.9,2.5c0.4,1.7,0.7,2.9,1,3.4h-1.8c-0.2-0.3-0.5-1.4-0.9-3c-0.4-1.7-1.1-2.4-2.7-2.4h-1.6v5.4h-1.7V12.6z
				 M81.1,18.2h1.7c1.8,0,3-0.9,3-2.3c0-1.6-1.2-2.3-3-2.3c-0.6,0-1.1,0-1.7,0.1L81.1,18.2z"/>
			<path class="st0" d="M92.1,20.9l-1.4,3.9h-1.8l4.5-12.4h2.1l4.5,12.4h-1.8l-1.4-3.9H92.1z M96.4,19.7l-1.3-3.6
				c-0.3-0.8-0.5-1.5-0.7-2.3h0c-0.2,0.7-0.4,1.5-0.7,2.2l-1.3,3.6H96.4z"/>
		</g>
		<g>
			<path class="st0" d="M38.2,7.9c-0.7,0.3-1.4,0.4-2.2,0.4c-2.3,0-4.1-1.4-4.1-3.9c0-2.4,1.7-4,4.3-4c0.7,0,1.3,0.1,2,0.3L38,1.4
				c-0.5-0.2-1.1-0.3-1.7-0.3c-1.9,0-3.2,1.2-3.2,3.2c0,1.9,1.2,3.1,3.2,3.1c0.6,0,1.2-0.1,1.7-0.3L38.2,7.9z"/>
			<path class="st0" d="M40.7,1c0,0.3-0.3,0.6-0.7,0.6c-0.4,0-0.7-0.3-0.7-0.6c0-0.3,0.3-0.6,0.6-0.6c0,0,0,0,0,0
				C40.4,0.4,40.7,0.6,40.7,1C40.7,1,40.7,1,40.7,1z M39.5,8.1V2.6h1.1v5.5H39.5z"/>
			<path class="st0" d="M47.3,6.6c0,0.6,0,1.1,0.1,1.5h-1l-0.1-0.9h0c-0.4,0.7-1.1,1.1-2,1c-0.9,0-2-0.5-2-2.4V2.6h1.1v3.1
				c0,1.1,0.3,1.8,1.3,1.8c0.6,0,1.2-0.4,1.4-0.9c0.1-0.2,0.1-0.3,0.1-0.5V2.6h1.1L47.3,6.6z"/>
			<path class="st0" d="M54.2,0v6.7c0,0.5,0,1.1,0,1.4h-1l0-1h0c-0.4,0.7-1.2,1.1-2,1.1c-1.4,0-2.5-1.1-2.5-2.8c0-1.8,1.2-3,2.7-3
				c0.7,0,1.4,0.3,1.8,0.8h0V0H54.2z M53.1,4.8c0-0.1,0-0.3-0.1-0.4c-0.2-0.7-0.8-1.2-1.6-1.2c-1.1,0-1.8,0.9-1.8,2.1
				c0,1.1,0.6,2,1.7,2c0.8,0,1.4-0.5,1.6-1.2c0-0.1,0.1-0.3,0.1-0.4L53.1,4.8z"/>
			<path class="st0" d="M59.2,8.1l-0.1-0.7h0c-0.4,0.5-1.1,0.8-1.8,0.8c-1.2,0-1.8-0.8-1.8-1.6c0-1.3,1.3-2.1,3.6-2.1V4.5
				c0-0.5-0.1-1.3-1.3-1.3c-0.5,0-1.1,0.1-1.5,0.4L55.9,3c0.6-0.3,1.3-0.5,1.9-0.5c1.8,0,2.2,1.2,2.2,2.3v2.1c0,0.4,0,0.9,0.1,1.3
				L59.2,8.1z M59.1,5.3c-1.2,0-2.5,0.2-2.5,1.2c0,0.5,0.3,0.9,0.9,1c0,0,0.1,0,0.1,0c0.6,0,1.2-0.4,1.4-0.9c0-0.1,0.1-0.2,0.1-0.3
				V5.3z"/>
			<path class="st0" d="M66.9,0v6.7c0,0.5,0,1.1,0.1,1.4h-1l-0.1-1h0c-0.4,0.7-1.2,1.1-2,1.1c-1.4,0-2.5-1.1-2.5-2.8
				c0-1.8,1.2-3,2.6-3c0.7,0,1.4,0.3,1.8,0.8h0V0H66.9z M65.9,4.8c0-0.1,0-0.3,0-0.4c-0.2-0.7-0.8-1.2-1.6-1.2
				c-1.1,0-1.8,0.9-1.8,2.1c0,1.1,0.6,2,1.7,2c0.8,0,1.4-0.5,1.6-1.2c0-0.1,0.1-0.3,0-0.4L65.9,4.8z"/>
		</g>
	</g>
</g>
</svg>
